<?xml version="1.0" encoding="utf-8"?>
<!-- Generator: Adobe Illustrator 22.1.0, SVG Export Plug-In . SVG Version: 6.00 Build 0)  -->
<svg version="1.1" id="Calque_1" xmlns="http://www.w3.org/2000/svg" xmlns:xlink="http://www.w3.org/1999/xlink" x="0px" y="0px"
	 width="280px" height="188px" viewBox="0 0 280 188" style="enable-background:new 0 0 280 188;" xml:space="preserve">
<style type="text/css">
	.st0{fill:#231F20;}
	.st1{fill:#A0CC3A;}
	.st2{fill:#80C242;}
	.st3{fill:#007B3C;}
	.st4{fill:#FFFFFF;}
</style>
<g>
	<g>
		<path class="st0" d="M141.3,13.4c-3,0-5.6,1.1-7.8,3.2c-2.1,2.1-3.2,4.7-3.2,7.7c0,3,1.1,5.6,3.2,7.8c2.1,2.1,4.7,3.2,7.8,3.2
			c3,0,5.6-1.1,7.8-3.2c2.1-2.1,3.2-4.7,3.2-7.7c0-3-1.1-5.6-3.2-7.8C146.9,14.5,144.3,13.4,141.3,13.4z"/>
		<path class="st0" d="M124.9,87.6l0-0.3c0-12.1-5.9-18.4-15.5-22.4c5.9-3.4,10.9-9.5,10.9-19.7l0-0.3c0-6.1-1.9-11.3-5.7-15.5
			c-4.8-5.4-12-8.1-21.6-8.1l-38.4,0l-0.1,91.3l39.3,0C112.6,112.7,124.8,104.3,124.9,87.6z M72.3,39l18,0c7.7,0,11.9,3.3,11.9,9.4
			l0,0.3c0,6.8-5.1,9.6-13.1,9.6l-16.8,0L72.3,39z M106.8,85.1c0,6.8-4.9,9.9-12.9,9.9l-21.6,0l0-20.1l21,0c9.5,0,13.5,3.8,13.5,9.9
			L106.8,85.1z"/>
		<rect x="131.3" y="43.2" class="st0" width="18.8" height="63.9"/>
		<path class="st0" d="M70.6,137.5l-0.4-11.6l-16.3,0.6l2.1,57.4l16.3-0.6l-0.8-21.2c-0.5-13.8,5.9-20.5,16.7-20.9l0.9,0l-0.6-17
			C78.7,124.1,73.6,129.5,70.6,137.5z"/>
		<path class="st0" d="M133.1,125.1l1.4,29.4c0.3,7.1-3.2,10.9-9.2,11.2c-6.1,0.3-9.6-3.2-10-10.3l-1.4-29.4l-15.6,0.8l1.7,34.1
			c0.6,12.2,7.7,19.2,19.7,18.7c7.8-0.4,12.3-4.6,15.7-9.2l0.4,7.5l15.6-0.8l-2.6-52.7L133.1,125.1z"/>
		<path class="st0" d="M167,117.9c2.7,0,5.1-1,7-2.9c1.9-1.9,2.9-4.3,2.9-7c0-2.7-1-5.1-2.9-7c-1.9-1.9-4.3-2.9-7-2.9
			c-2.7,0-5.1,1-7,2.9c-1.9,1.9-2.9,4.3-2.9,7c0,2.7,1,5.1,2.9,7C161.9,116.9,164.2,117.9,167,117.9z"/>
		<polygon class="st0" points="159.3,124.9 162.3,182.3 179.8,181.5 176.8,124.1 		"/>
		<path class="st0" d="M219.7,164.9c-3.7,0.2-5.7-1.7-5.8-5.6l-1.3-26l14.3-0.7l-0.7-14.8l-14.3,0.7l-0.8-15.5l-17.3,0.8l0.8,15.5
			l-10.5,0.5l0.7,14.8l10.5-0.5l1.4,28.8c0.7,14.1,8.2,17.9,18.6,17.4c5.8-0.3,9.9-1.8,13.5-4.2l-0.7-13.8
			C225.6,164,222.8,164.8,219.7,164.9z"/>
		<path class="st0" d="M280,156.3l0-0.2c-0.5-10.6-10.1-14.1-18.3-16.3c-6.4-1.6-12-3.3-12.1-6.3l0-0.2c-0.1-2.3,1.9-4.1,5.9-4.3
			c4.2-0.2,10,1.6,15.9,4.6l5.7-11.6c-6.6-3.9-14.6-6-21.9-5.6c-11.7,0.6-20.8,7.6-20.3,19.4l0,0.2c0.5,11.2,9.9,14.7,18.1,16.5
			c6.5,1.7,12.1,2.6,12.3,6.1l0,0.2c0.1,2.6-2,4.4-6.7,4.7c-5.5,0.3-12-1.7-18.6-6l-6.5,11.1c8.1,5.7,17.1,7.9,25.3,7.5
			C271.3,175.5,280.6,169.2,280,156.3z"/>
		<path class="st0" d="M37.9,103.5c3.4-0.2,5.8,0.3,8.8,1.2l-0.8-15.8c-3.6-1-7.6-1.5-13.7-1.2C25.4,88,20.4,90,17,93.7
			c-3.5,3.8-5,9.3-4.6,16.6l0.1,2.2l0,0l0.6,11.9L0,125l0.8,15.7l13.1-0.5l2.5,47.8l19.1-0.9L33,139.3l13.3-0.6l-0.7-15.9l-13.5,0.6
			l-0.7-11.6l0,0l0-0.8C31.1,106.2,33.2,103.7,37.9,103.5z"/>
	</g>
	<g>
		<path class="st1" d="M163.3,39.6c0-0.7-0.1-1.4-0.5-2c-0.4-0.6-1-1-1.7-1c-0.9,0-1.6,0.9-2.1,1.7c-1.7,2.7-2.4,5.9-2.6,9.1
			s0.2,6.4,0.5,9.5c-0.2-2.3,2.2-6.5,3.2-8.5C161.5,45.6,163.4,42.9,163.3,39.6z"/>
		<path class="st1" d="M223.2,96.1c12.9,2.7,26-8.3,27.3-26.1c0.1-1.4,0.1-2.8-0.5-4.1c-0.6-1.2-2.1-2.1-3.4-1.6
			c-1.5,0.6-1.8,2.5-2,4c-1.3,10-2.8,18-12,23.8C230.7,93.3,225.5,96.6,223.2,96.1z"/>
		<path class="st1" d="M203.5,97.1c-4.7,0.9-12.1,0.2-16.7-2c-11.8-5.8-19.1-17-22.5-29.9c-2-7.3-0.6-14.9,4-21.1
			c4-5.3,10.4-9.2,17-10.2c3.3-0.5,6.7-0.2,9.9-1.2c4.2-1.3,7.6-4.6,11.5-6.6c4-2,8.5-3.3,12.9-2.5c12.5,2.2,19.8,17.6,21,29
			c1.1,10.6,0.5,25.7-9.1,33.9c-4.2,3.6-8.6,4.1-13.8,3.5c-1.1-0.1-2.1-0.2-3.2,0c-1.9,0.3-2.9,1.9-4.2,3.2
			C208.3,95.4,206,96.6,203.5,97.1z"/>
		<path class="st2" d="M228.7,60.9c-0.9-8.9-6.4-17.1-14-21.7c-2.3-1.4-5.2-3.1-5.1-5.9c0.1-2.3,2.5-3.8,4.7-4.2
			c4.1-0.8,8.4,0.9,11.5,3.6c3.1,2.7,5.3,6.5,6.9,10.3c2.1,4.7,3.5,9.8,3.7,14.9c0.2,5.3-0.9,10.6-2.7,15.7c-0.9,2.5-2,5.1-3.7,7.1
			c-1.8,2.1-5.7,5.2-8.7,5.2c-4.9,0,0.5-4.2,1.7-5.8C227.4,74.8,229.4,67.7,228.7,60.9z"/>
		<path class="st3" d="M206.4,0c-18.5,7.4-16.3,22.8-14.9,28.1c0.7,2.9,4.7,0.8,6-0.2c3.2-2.2,5.6-4,7.6-6.6c2.9-3.9,4-8.7,3.5-13.5
			c-0.3-2.6-1-5.3-2.1-7.7C206.5,0.1,206.4,0,206.4,0z"/>
		<path class="st4" d="M204.7,88.4c0.6-0.4,1-0.6,1.1-1c0,0,0-0.1,0-0.1c0,0-0.1,0-0.1-0.1c-0.5-0.1-1,0-1.5,0
			c-1.2,0.2-2.4,0.2-3.7,0.2c-1.7-0.1-3.5-0.3-5.2-0.7c-3.4-0.9-6.5-2.6-8.8-5.3c-4.4-5.3-5.6-14.3-5.5-21.2c0-3.7,0.7-7.4,0.2-11
			c-0.2-1.5-1.1-3.8-3-3.6c-1.8,0.2-3.9,2.4-4.8,3.8c-2.5,4-2.1,8.5-1.9,13.1c0.5,9.7,6.9,22.4,15.7,26.4c3.3,1.5,6.8,2.6,10.4,2.2
			c1.5-0.2,3-0.6,4.4-1.3c0.7-0.3,1.2-0.6,1.9-0.9C204,88.7,204.4,88.6,204.7,88.4z"/>
	</g>
</g>
</svg>
