<?xml version="1.0" encoding="utf-8"?>
<!-- Generator: Adobe Illustrator 21.0.2, SVG Export Plug-In . SVG Version: 6.00 Build 0)  -->
<svg version="1.1" id="Calque_1" xmlns="http://www.w3.org/2000/svg" xmlns:xlink="http://www.w3.org/1999/xlink" x="0px" y="0px"
	 viewBox="0 0 297.2 58.4" style="enable-background:new 0 0 297.2 58.4;" xml:space="preserve">
<style type="text/css">
	.st0{fill:#5E7F00;}
	.st1{fill:#383838;}
	.st2{fill:#8CB200;}
	.st3{fill:#383838;stroke:#383838;}
</style>
<g>
	<path class="st0" d="M31.5,22.5c-1.9-2.2-3.9-3.9-6-4.9c-2.1-1-4.3-1.5-6.4-1.5c-2.1,0-4.1,0.4-6,1.2c-1.9,0.8-3.5,1.9-4.9,3.3
		c-1.4,1.4-2.5,3-3.3,4.9c-0.8,1.9-1.2,3.9-1.2,6c0,2.1,0.4,4.1,1.2,6c0.8,1.9,1.9,3.5,3.3,4.9c1.4,1.4,3,2.5,4.9,3.3
		c1.9,0.8,3.9,1.2,6,1.2c1.7,0,3.3-0.2,4.8-0.8s2.9-1.2,4.1-2.1c1.3-0.9,2.4-1.9,3.3-3.2c0.9-1.2,1.7-2.6,2.3-4.1h-8.3
		c-0.5,0-1-0.2-1.3-0.5c-0.4-0.4-0.5-0.8-0.5-1.3c0-0.5,0.2-1,0.5-1.3c0.4-0.4,0.8-0.5,1.3-0.5h10.9c0.6,0,1.1,0.2,1.4,0.8
		c0.3,0.5,0.4,1,0.3,1.6c-0.4,2.2-1.2,4.2-2.4,6c-1.1,1.9-2.5,3.5-4.2,4.8c-1.7,1.3-3.5,2.4-5.6,3.2c-2.1,0.8-4.3,1.1-6.5,1.1
		c-2.6,0-5.1-0.5-7.4-1.5c-2.3-1-4.3-2.4-6.1-4.1c-1.7-1.7-3.1-3.7-4.1-6.1c-1-2.3-1.5-4.8-1.5-7.4c0-2.6,0.5-5.1,1.5-7.4
		c1-2.3,2.4-4.4,4.1-6.1c1.7-1.7,3.7-3.1,6.1-4.1c2.3-1,4.8-1.5,7.4-1.5c3.2,0,6.1,0.7,8.8,2.2c2.7,1.4,4.9,3.4,6.6,5.8
		c0.3,0.4,0.5,0.9,0.4,1.4c0,0.5-0.3,0.9-0.7,1.3c-0.4,0.3-0.8,0.4-1.3,0.4C32.4,23.3,31.9,23,31.5,22.5z"/>
	<path class="st0" d="M39.9,23.3c0-0.5,0.2-1,0.5-1.3c0.4-0.4,0.8-0.5,1.3-0.5c0.5,0,1,0.2,1.3,0.5c0.4,0.4,0.5,0.8,0.5,1.3v2.9
		c1.3-1.4,2.8-2.6,4.6-3.4c1.8-0.9,3.8-1.3,5.9-1.4c0.6,0,1.1,0.2,1.5,0.5c0.4,0.4,0.6,0.8,0.6,1.3c0,0.5-0.2,1-0.6,1.3
		c-0.4,0.4-0.9,0.5-1.5,0.5c-1.4,0-2.8,0.3-4,0.9c-1.2,0.6-2.3,1.3-3.3,2.2c-0.9,0.9-1.7,2-2.3,3.2c-0.6,1.2-0.9,2.6-0.9,4v13.3
		c0,0.5-0.2,1-0.5,1.3c-0.4,0.4-0.8,0.5-1.3,0.5c-0.5,0-1-0.2-1.3-0.5c-0.4-0.4-0.5-0.8-0.5-1.3V23.3z"/>
	<path class="st0" d="M57.8,37.9c0.2,1.3,0.6,2.5,1.3,3.6c0.6,1.1,1.4,2.1,2.4,2.9c0.9,0.8,2,1.4,3.2,1.9c1.2,0.5,2.5,0.7,3.8,0.7
		c1.5,0,2.9-0.3,4.1-0.8c1.3-0.5,2.4-1.3,3.4-2.2c0.4-0.4,0.8-0.5,1.3-0.5c0.5,0,1,0.2,1.3,0.5c0.4,0.4,0.5,0.8,0.5,1.3
		c0,0.5-0.2,1-0.5,1.3c-1.3,1.5-2.8,2.5-4.5,3.1c-1.7,0.6-3.6,0.9-5.7,0.9c-2,0-3.9-0.4-5.6-1.1c-1.7-0.7-3.3-1.7-4.6-3
		c-1.3-1.3-2.4-2.8-3.1-4.6c-0.8-1.8-1.1-3.7-1.1-5.8c0-2,0.4-3.9,1.1-5.6c0.7-1.7,1.8-3.3,3.1-4.6c1.3-1.3,2.8-2.3,4.6-3.1
		c1.8-0.8,3.7-1.2,5.8-1.3c1.9,0,3.7,0.4,5.4,1.1c1.7,0.8,3.2,1.8,4.5,3.1c1.3,1.3,2.4,2.8,3.1,4.5c0.8,1.7,1.2,3.6,1.3,5.5
		c0.1,0.7-0.1,1.2-0.5,1.6c-0.4,0.4-0.9,0.5-1.4,0.5H57.8z M68.4,25.3c-1.3,0-2.6,0.2-3.8,0.7c-1.2,0.5-2.2,1.1-3.2,1.9
		c-0.9,0.8-1.7,1.7-2.3,2.8c-0.6,1.1-1,2.2-1.3,3.5H79c-0.2-1.2-0.7-2.4-1.3-3.5c-0.6-1.1-1.4-2-2.4-2.8c-0.9-0.8-2-1.4-3.2-1.9
		C71,25.6,69.7,25.3,68.4,25.3z"/>
	<path class="st0" d="M88.9,37.9c0.2,1.3,0.6,2.5,1.3,3.6c0.6,1.1,1.4,2.1,2.4,2.9c0.9,0.8,2,1.4,3.2,1.9c1.2,0.5,2.5,0.7,3.8,0.7
		c1.5,0,2.9-0.3,4.1-0.8c1.3-0.5,2.4-1.3,3.4-2.2c0.4-0.4,0.8-0.5,1.3-0.5c0.5,0,1,0.2,1.3,0.5c0.4,0.4,0.5,0.8,0.5,1.3
		c0,0.5-0.2,1-0.5,1.3c-1.3,1.5-2.8,2.5-4.5,3.1c-1.7,0.6-3.6,0.9-5.7,0.9c-2,0-3.9-0.4-5.6-1.1c-1.7-0.7-3.3-1.7-4.6-3
		c-1.3-1.3-2.4-2.8-3.1-4.6c-0.8-1.8-1.1-3.7-1.1-5.8c0-2,0.4-3.9,1.1-5.6c0.7-1.7,1.8-3.3,3.1-4.6c1.3-1.3,2.8-2.3,4.6-3.1
		c1.8-0.8,3.7-1.2,5.8-1.3c1.9,0,3.7,0.4,5.4,1.1c1.7,0.8,3.2,1.8,4.5,3.1c1.3,1.3,2.4,2.8,3.2,4.5c0.8,1.7,1.2,3.6,1.3,5.5
		c0.1,0.7-0.1,1.2-0.5,1.6c-0.4,0.4-0.9,0.5-1.4,0.5H88.9z M99.5,25.3c-1.3,0-2.6,0.2-3.8,0.7c-1.2,0.5-2.2,1.1-3.2,1.9
		c-0.9,0.8-1.7,1.7-2.3,2.8c-0.6,1.1-1,2.2-1.3,3.5h21.2c-0.2-1.2-0.7-2.4-1.3-3.5c-0.6-1.1-1.4-2-2.4-2.8c-0.9-0.8-2-1.4-3.2-1.9
		C102.1,25.6,100.9,25.3,99.5,25.3z"/>
	<path class="st0" d="M136.4,50.6c-0.5,0-1-0.2-1.3-0.5c-0.4-0.4-0.5-0.8-0.5-1.3V32.2c0-1-0.2-1.9-0.6-2.7
		c-0.4-0.9-0.9-1.6-1.5-2.2c-0.6-0.6-1.4-1.1-2.2-1.5c-0.9-0.4-1.8-0.5-2.7-0.5c-1,0-1.9,0.2-2.7,0.5c-0.8,0.4-1.6,0.8-2.2,1.4
		c-0.6,0.6-1.1,1.3-1.5,2.1c-0.4,0.8-0.6,1.7-0.6,2.6v16.8c0,0.5-0.2,1-0.5,1.3c-0.4,0.4-0.8,0.5-1.3,0.5c-0.5,0-1-0.2-1.3-0.5
		c-0.4-0.4-0.5-0.8-0.5-1.3V23.3c0-0.5,0.2-1,0.5-1.3c0.4-0.4,0.8-0.5,1.3-0.5c0.5,0,1,0.2,1.3,0.5c0.4,0.4,0.5,0.8,0.5,1.3v0.8
		c0.9-0.8,2-1.4,3.2-1.9c1.2-0.5,2.5-0.7,3.8-0.7c1.5,0,2.9,0.3,4.2,0.8c1.3,0.6,2.5,1.3,3.5,2.3c1,1,1.7,2.1,2.3,3.5
		c0.6,1.3,0.8,2.7,0.8,4.2v16.5c0,0.5-0.2,1-0.5,1.3C137.4,50.4,137,50.6,136.4,50.6z"/>
	<path class="st1" d="M170.9,50.6c-1.1,0-2.3-0.2-3.5-0.5c-1.2-0.3-2.4-0.7-3.5-1.3s-2.1-1.2-3-2c-0.9-0.8-1.6-1.6-2.1-2.5
		c-0.3-0.5-0.4-1-0.2-1.5c0.1-0.5,0.5-0.9,0.9-1.2c0.5-0.3,1-0.3,1.5-0.2c0.5,0.1,0.9,0.5,1.2,0.9c0.4,0.7,0.9,1.3,1.6,1.9
		c0.7,0.5,1.5,1,2.3,1.4c0.8,0.4,1.7,0.7,2.5,0.8c0.9,0.2,1.6,0.3,2.3,0.3c1.1,0,2.1-0.2,3.2-0.6c1-0.4,2-0.9,2.7-1.6
		c0.8-0.7,1.4-1.5,1.9-2.4c0.5-0.9,0.7-2,0.7-3c0-1.1-0.2-2-0.6-2.8c-0.4-0.8-1-1.5-1.8-2.1c-0.8-0.6-1.7-1.1-2.7-1.6
		c-1-0.5-2.2-0.9-3.4-1.3c-1.2-0.4-2.5-0.8-3.8-1.4c-1.3-0.5-2.6-1.2-3.7-1.9c-1.1-0.8-2-1.7-2.7-2.7c-0.7-1-1.1-2.2-1.1-3.5
		c0-1.5,0.3-2.9,1-4c0.7-1.2,1.6-2.2,2.6-3c1.1-0.8,2.3-1.4,3.6-1.9c1.3-0.4,2.7-0.6,4-0.6c0.9,0,1.8,0.1,2.7,0.2
		c0.9,0.1,1.9,0.4,2.8,0.8c0.9,0.4,1.8,0.9,2.7,1.5c0.9,0.6,1.6,1.5,2.4,2.5c0.3,0.4,0.4,1,0.4,1.6c-0.1,0.6-0.4,1.1-0.8,1.3
		c-0.5,0.3-1,0.4-1.5,0.2c-0.5-0.2-0.9-0.5-1.2-0.9c-0.5-0.8-1-1.4-1.7-1.9c-0.6-0.5-1.3-0.8-2-1c-0.7-0.2-1.3-0.4-2-0.5
		c-0.7-0.1-1.3-0.1-1.8-0.1c-0.8,0-1.6,0.1-2.5,0.3c-0.9,0.2-1.7,0.5-2.4,1c-0.7,0.4-1.3,1-1.8,1.8c-0.5,0.7-0.7,1.7-0.7,2.8
		c0,0.8,0.3,1.5,1,2.2c0.7,0.6,1.5,1.2,2.6,1.7c1,0.5,2,0.9,3.1,1.3c1.1,0.4,2,0.7,2.8,1c1.5,0.6,2.9,1.2,4.1,1.8
		c1.2,0.6,2.3,1.4,3.2,2.3c0.9,0.9,1.6,1.9,2.1,3.1c0.5,1.2,0.8,2.5,0.8,4.1c0,1.6-0.3,3.1-1,4.5c-0.7,1.4-1.6,2.6-2.7,3.6
		c-1.1,1-2.5,1.8-3.9,2.4C174.1,50.3,172.5,50.6,170.9,50.6z"/>
	<path class="st1" d="M205,50.6c-0.5,0-1-0.2-1.3-0.5c-0.4-0.4-0.5-0.8-0.5-1.3V32.4c0-1-0.2-1.9-0.6-2.7c-0.4-0.9-0.9-1.6-1.5-2.2
		c-0.6-0.6-1.4-1.1-2.2-1.5c-0.9-0.4-1.8-0.5-2.7-0.5c-1,0-1.9,0.2-2.7,0.5c-0.8,0.4-1.6,0.8-2.2,1.4c-0.6,0.6-1.1,1.3-1.5,2.1
		c-0.4,0.8-0.6,1.7-0.6,2.6v16.7c0,0.6-0.2,1-0.5,1.4c-0.3,0.3-0.8,0.5-1.3,0.5c-0.5,0-1-0.2-1.3-0.5c-0.3-0.4-0.5-0.8-0.6-1.3V14.1
		c0-0.5,0.2-1,0.5-1.3c0.4-0.4,0.8-0.5,1.3-0.5c0.5,0,1,0.2,1.3,0.5c0.4,0.4,0.5,0.8,0.5,1.3v10.1c0.9-0.8,2-1.4,3.2-1.9
		c1.2-0.5,2.5-0.7,3.8-0.7c1.5,0,2.9,0.3,4.2,0.8c1.3,0.6,2.5,1.3,3.5,2.3c1,1,1.7,2.1,2.3,3.4c0.6,1.3,0.8,2.7,0.8,4.2v16.4
		c0,0.5-0.2,1-0.5,1.3C206,50.4,205.5,50.6,205,50.6z"/>
	<path class="st1" d="M223.8,21.6c1.9,0,3.8,0.4,5.5,1.2c1.7,0.8,3.3,1.8,4.6,3.2c1.3,1.3,2.4,2.9,3.2,4.6c0.8,1.8,1.2,3.6,1.2,5.6
		c0,2-0.4,3.8-1.1,5.5c-0.8,1.7-1.8,3.3-3.1,4.6c-1.3,1.3-2.8,2.4-4.6,3.1c-1.8,0.8-3.7,1.1-5.7,1.1c-2,0-3.9-0.4-5.6-1.1
		c-1.7-0.7-3.3-1.7-4.6-3c-1.3-1.3-2.4-2.8-3.1-4.6c-0.8-1.8-1.1-3.7-1.1-5.8c0-2,0.4-3.9,1.1-5.6c0.7-1.7,1.8-3.3,3.1-4.6
		c1.3-1.3,2.8-2.3,4.6-3.1C219.8,22.1,221.7,21.6,223.8,21.6z M212.9,36.1c0,1.5,0.3,2.9,0.8,4.2c0.6,1.3,1.3,2.4,2.3,3.4
		c1,1,2.1,1.8,3.4,2.3c1.3,0.6,2.7,0.8,4.2,0.8c1.5,0,2.9-0.3,4.2-0.8c1.3-0.6,2.5-1.3,3.5-2.3c1-1,1.7-2.1,2.3-3.4
		c0.6-1.3,0.8-2.7,0.8-4.2c0-1.5-0.3-2.9-0.8-4.2c-0.6-1.3-1.3-2.5-2.3-3.5c-1-1-2.1-1.7-3.5-2.3c-1.3-0.6-2.7-0.8-4.2-0.8
		c-1.5,0-2.9,0.3-4.2,0.8c-1.3,0.6-2.4,1.3-3.4,2.3c-1,1-1.8,2.1-2.3,3.5C213.2,33.3,212.9,34.7,212.9,36.1z"/>
	<path class="st1" d="M240.4,23.3c0-0.5,0.2-1,0.5-1.3c0.4-0.4,0.8-0.5,1.3-0.5c0.5,0,1,0.2,1.3,0.5c0.4,0.4,0.5,0.8,0.5,1.3v3
		c1.3-1.5,2.9-2.6,4.7-3.5c1.8-0.8,3.8-1.2,6-1.2c2,0,3.9,0.4,5.7,1.1c1.8,0.8,3.3,1.8,4.6,3.1c1.3,1.3,2.3,2.8,3.1,4.6
		c0.8,1.7,1.1,3.6,1.1,5.5c0,2-0.4,3.9-1.2,5.6c-0.8,1.8-1.8,3.3-3.2,4.6c-1.3,1.3-2.8,2.4-4.6,3.2c-1.7,0.8-3.6,1.2-5.5,1.2
		c-2.2-0.1-4.3-0.6-6.1-1.7c-1.8-1.1-3.4-2.3-4.7-3.8v10.5c0,0.5-0.2,1-0.5,1.3c-0.4,0.4-0.8,0.5-1.3,0.5c-0.5,0-1-0.2-1.3-0.5
		c-0.4-0.4-0.5-0.8-0.5-1.3V23.3z M244.1,36c0,1.6,0.4,3,1,4.3c0.6,1.3,1.4,2.5,2.3,3.4c1,1,2.1,1.7,3.4,2.2
		c1.3,0.5,2.6,0.8,4.1,0.8c1.5,0,2.9-0.3,4.2-0.8c1.3-0.6,2.5-1.3,3.5-2.3c1-1,1.7-2.1,2.3-3.5c0.6-1.3,0.8-2.7,0.8-4.2
		c0-1.5-0.3-2.9-0.8-4.2c-0.6-1.3-1.3-2.4-2.3-3.4c-1-1-2.1-1.7-3.5-2.3c-1.3-0.6-2.7-0.8-4.2-0.8c-1.4,0-2.8,0.3-4.1,0.8
		c-1.3,0.5-2.4,1.3-3.4,2.2c-1,0.9-1.7,2-2.3,3.3c-0.6,1.3-0.9,2.6-1,4V36z"/>
</g>
<path class="st1" d="M156.1,36.2c0,1-0.8,1.8-1.8,1.8h-9.1c-1,0-1.8-0.8-1.8-1.8l0,0c0-1,0.8-1.8,1.8-1.8h9.1
	C155.3,34.4,156.1,35.2,156.1,36.2L156.1,36.2z"/>
<g>
	<path class="st2" d="M291.7,36.2c0,0-13.6,7.9-18.9-6.5C272.8,29.6,283.7,21.5,291.7,36.2z"/>
	<path class="st0" d="M272.8,29.6c0,0,10.9-8.1,18.9,6.5"/>
</g>
<g>
	<path class="st2" d="M265.5,0c0,0,11.7,10.5-0.4,20C265.1,20,254,12.1,265.5,0z"/>
	<path class="st0" d="M265.1,20c0,0-11.1-7.9,0.4-20"/>
</g>
<g>
	<path class="st2" d="M297.2,3.1c0,0-1.2,26.9-26.9,21.1C270.3,24.2,268.7,0.9,297.2,3.1z"/>
	<path class="st0" d="M270.3,24.2c0,0-1.6-23.3,26.9-21.1"/>
</g>
<g>
	<path class="st3" d="M262.8,56.8c0-0.3,0.1-0.5,0.3-0.7c0.2-0.2,0.4-0.3,0.7-0.3c0.3,0,0.5,0.1,0.7,0.3c0.2,0.2,0.3,0.4,0.3,0.7
		c0,0.3-0.1,0.5-0.3,0.7c-0.2,0.2-0.4,0.3-0.7,0.3c-0.3,0-0.5-0.1-0.7-0.3C262.9,57.4,262.8,57.1,262.8,56.8z"/>
	<path class="st3" d="M277.1,48.5c-0.4-0.4-0.9-0.7-1.4-0.9c-0.5-0.2-1.1-0.3-1.7-0.3c-0.6,0-1.2,0.1-1.8,0.4c-0.5,0.2-1,0.6-1.4,1
		c-0.4,0.4-0.7,0.9-1,1.5c-0.2,0.6-0.4,1.1-0.4,1.8c0,0.6,0.1,1.2,0.4,1.8c0.2,0.5,0.6,1,1,1.4c0.4,0.4,0.9,0.7,1.4,1
		c0.5,0.2,1.1,0.4,1.8,0.4c0.6,0,1.2-0.1,1.7-0.3c0.5-0.2,1-0.5,1.4-0.9c0.2-0.2,0.3-0.2,0.6-0.2c0.2,0,0.4,0.1,0.6,0.2
		c0.2,0.2,0.2,0.3,0.2,0.6c0,0.2-0.1,0.4-0.3,0.6c-0.2,0.2-0.4,0.3-0.6,0.5c-0.3,0.2-0.6,0.4-0.9,0.5c-0.4,0.2-0.8,0.3-1.2,0.4
		c-0.4,0.1-0.9,0.2-1.5,0.2c-0.8,0-1.6-0.2-2.4-0.5c-0.7-0.3-1.4-0.7-1.9-1.3c-0.6-0.5-1-1.2-1.3-1.9c-0.3-0.7-0.5-1.6-0.5-2.4
		c0-0.8,0.2-1.6,0.5-2.4c0.3-0.7,0.7-1.4,1.3-1.9c0.5-0.5,1.2-1,1.9-1.3c0.7-0.3,1.6-0.5,2.4-0.5c0.5,0,1,0.1,1.4,0.2
		c0.4,0.1,0.8,0.3,1.2,0.5c0.3,0.2,0.7,0.4,0.9,0.6c0.3,0.2,0.5,0.4,0.7,0.5c0.1,0.1,0.2,0.2,0.3,0.5c0.1,0.2,0,0.4-0.2,0.6
		c-0.2,0.2-0.3,0.2-0.6,0.2C277.4,48.7,277.2,48.6,277.1,48.5z"/>
	<path class="st3" d="M289.6,57.9c-0.2,0-0.4-0.1-0.6-0.2c-0.2-0.2-0.2-0.3-0.2-0.6v-6.9c0-0.4-0.1-0.8-0.2-1.2
		c-0.2-0.4-0.4-0.7-0.6-0.9c-0.3-0.3-0.6-0.5-0.9-0.6c-0.4-0.2-0.7-0.2-1.2-0.2s-0.8,0.1-1.1,0.2c-0.4,0.2-0.7,0.4-0.9,0.6
		c-0.3,0.3-0.5,0.6-0.6,0.9c-0.2,0.3-0.2,0.7-0.3,1.1v7c0,0.2-0.1,0.4-0.2,0.6c-0.1,0.1-0.3,0.2-0.6,0.2c-0.2,0-0.4-0.1-0.5-0.2
		c-0.1-0.2-0.2-0.3-0.2-0.6V42.5c0-0.2,0.1-0.4,0.2-0.6c0.2-0.2,0.3-0.2,0.6-0.2c0.2,0,0.4,0.1,0.6,0.2c0.2,0.2,0.2,0.3,0.2,0.6v4.2
		c0.4-0.3,0.8-0.6,1.3-0.8c0.5-0.2,1-0.3,1.6-0.3c0.6,0,1.2,0.1,1.8,0.4c0.6,0.2,1,0.6,1.5,1c0.4,0.4,0.7,0.9,1,1.5
		c0.2,0.6,0.4,1.1,0.4,1.8v6.9c0,0.2-0.1,0.4-0.2,0.6C290,57.8,289.8,57.9,289.6,57.9z"/>
</g>
</svg>
