<?xml version="1.0" encoding="UTF-8"?>
<svg width="100px" height="90px" viewBox="0 0 100 90" version="1.1" xmlns="http://www.w3.org/2000/svg" xmlns:xlink="http://www.w3.org/1999/xlink">
    <!-- Generator: Sketch 46.1 (44463) - http://www.bohemiancoding.com/sketch -->
    <title>koro-logo</title>
    <desc>Created with Sketch.</desc>
    <defs></defs>
    <g id="Page-1" stroke="none" stroke-width="1" fill="none" fill-rule="evenodd">
        <g id="koro" transform="translate(-102.000000, -158.000000)" fill="#000000">
            <g id="koro-logo" transform="translate(102.000000, 157.000000)">
                <path d="M33.3046,79.7974 C34.3716,79.4874 34.2156,79.6064 35.5376,79.1914 C36.2826,78.9564 37.0026,78.6434 37.7336,78.3624 C38.0846,78.2304 38.4096,78.1604 38.7266,78.2834 C38.8496,78.3304 39.0646,78.3414 39.2136,78.2924 C41.0496,77.7044 40.5496,78.0604 42.3396,77.3274 C42.5526,77.2404 48.2676,75.4204 48.7336,75.2664 C49.2486,75.0934 49.7776,74.9544 50.2826,74.7644 C52.1506,74.0564 54.0806,73.5814 55.9956,73.0504 C56.7506,72.8404 57.5026,72.6194 58.2556,72.4014 C58.7256,72.2664 59.1696,72.1104 59.4366,71.7354 C59.5106,71.6334 64.1916,70.0934 64.3526,70.0344 C64.6346,69.9344 64.9316,69.8254 65.2176,69.7874 C66.2896,69.6454 67.3116,69.2724 68.3516,68.9734 C70.1616,68.4524 71.9866,68.1804 73.7946,68.0224 C74.5986,67.9504 75.3756,68.0574 76.1586,68.0984 C76.6046,68.1204 77.0396,68.1744 77.4786,68.2134 C78.3126,68.2904 79.1666,68.2734 80.0646,68.0684 C80.2976,68.0174 80.5336,67.9964 80.7686,67.9654 C80.9126,67.9444 81.0866,68.0814 81.0466,68.1854 C80.9826,68.3544 80.9216,68.5234 80.8446,68.6914 C80.5056,69.4384 79.8486,69.9584 78.7766,70.1744 C77.8976,70.3494 77.0526,70.7434 76.1576,70.8084 C75.2236,71.2244 74.2456,71.4874 73.2556,71.7314 C73.0396,71.7824 72.8046,71.9204 72.6396,72.0564 C72.3216,72.3154 71.9596,72.4804 71.5466,72.6024 C70.7926,72.8214 70.0626,73.0964 69.3546,73.4244 C68.9766,73.6004 68.5856,73.7644 68.1866,73.8974 C67.2086,74.2204 66.2786,74.6104 65.4316,75.1384 C65.3826,75.1684 65.3316,75.2004 65.2766,75.2244 C63.3326,76.0124 61.3876,76.8154 59.3446,77.3374 C58.4606,77.5654 57.6416,77.8834 56.8196,78.2304 C56.7796,78.2454 56.7406,78.3034 56.7376,78.3354 C56.7336,78.3744 47.2486,81.3544 47.1026,81.3894 C46.5206,81.5264 45.9356,81.6564 45.3576,81.8184 C44.0246,82.1874 42.7116,82.6394 41.3626,82.9484 C41.0746,83.0164 40.7756,83.1104 40.5126,83.2354 C39.8556,83.5494 39.1566,83.7294 38.4636,83.9314 C37.7696,84.1334 37.0726,84.3254 36.3766,84.5234 C36.1446,84.5874 35.9076,84.6904 35.6816,84.7114 C34.4246,84.8384 33.2456,85.3404 32.0376,85.6904 C31.4576,85.8584 30.8966,86.0304 30.2986,86.1004 C29.6866,86.1684 29.2406,86.6204 28.6556,86.7834 C28.3076,86.8824 27.9576,86.9704 27.6066,87.0584 C27.0826,87.1904 26.5566,87.3094 26.0346,87.4494 C25.5116,87.5924 24.9966,87.7374 24.4596,87.7944 C24.0546,87.8374 23.6306,87.9294 23.2316,88.0534 C21.1956,88.6924 19.1486,88.9304 17.1046,89.1934 C16.5296,89.2674 15.9586,89.2274 15.3976,89.2064 C14.8606,89.1894 14.5136,88.9794 14.2966,88.6514 C14.1006,88.3554 14.1556,88.1524 14.5856,87.8604 C14.8706,87.6664 15.1796,87.4894 15.4466,87.2844 C16.3946,86.5564 17.4816,85.9934 18.6196,85.4434 C20.0166,84.7674 21.4426,84.1684 22.8846,83.5734 C23.9386,83.1394 24.3886,83.1424 25.4626,82.7464 C25.7446,82.6444 26.9006,81.9774 26.9006,81.9774 C28.0386,81.4314 29.2576,81.0944 30.4616,80.7134 C31.3236,80.4424 32.1826,80.1594 33.3046,79.7974" id="Fill-1"></path>
                <path d="M52.8754,57.6226 C52.8344,56.8516 52.7914,56.0796 52.7534,55.3096 C52.7214,54.6546 52.8424,54.0156 53.0454,53.4056 C53.6504,51.5966 53.8614,50.9526 53.8834,49.8996 C53.9284,47.7136 53.9954,40.5066 53.6634,38.3216 C53.4614,36.9906 53.4634,35.6276 53.4144,34.2756 C53.3774,33.2496 53.4054,32.2196 53.4054,31.1886 C53.4054,30.9336 53.4514,30.6686 53.4094,30.4196 C53.2574,29.5196 53.3874,28.6196 53.3474,27.7266 C53.2664,25.9176 53.3624,19.4106 53.5744,17.6146 C53.7024,16.5316 53.6314,15.4276 53.7274,14.3386 C53.8734,12.6746 53.9934,11.0026 54.5024,9.3906 C54.5974,9.0886 54.6244,8.7656 54.6754,8.4496 C54.7014,8.2856 54.4564,8.0796 54.2864,8.1136 C53.6524,8.2436 53.0414,8.4046 52.4734,8.7556 C51.4284,9.3986 51.2704,9.0026 50.2404,9.6706 C49.4274,10.1956 48.5924,10.6846 47.7774,11.2036 C47.1864,11.5796 48.2744,10.3706 47.8764,10.9806 C47.4834,11.5836 47.4414,11.5906 46.8694,12.0266 C46.3514,12.4226 45.9244,12.9026 45.7144,13.5466 C45.5614,14.0146 45.2204,14.2816 44.7244,14.3516 C44.5964,14.3686 44.4694,14.4266 44.3434,14.4246 C43.5124,14.4076 42.8724,14.7266 42.3344,15.3696 C41.9814,15.7936 41.4314,15.8346 40.8924,15.7226 C40.6564,15.6736 40.4194,15.3346 40.5134,15.1616 C40.7284,14.7666 40.9074,14.3456 41.1644,13.9776 C41.5334,13.4506 41.9454,12.9506 42.3644,12.4616 C43.1194,11.5756 42.2254,12.3536 42.9984,11.4856 C44.4634,9.8416 45.6284,8.8516 47.3484,7.4776 C47.9024,7.0356 48.4734,6.6146 49.0334,6.1806 C50.9314,4.7056 52.0464,4.4756 54.2644,3.5326 C56.2454,2.6906 58.3284,2.2156 60.3884,1.6506 C60.8224,1.5316 61.2824,1.5036 61.7324,1.4456 C62.2474,1.3826 62.7864,1.4076 63.2754,1.2646 C64.6854,0.8516 66.1104,1.0146 67.5164,1.1426 C69.3664,1.3106 71.0014,2.0196 72.3634,3.3506 C73.3314,4.2966 74.3454,5.1806 74.9744,6.4096 C75.2654,6.9806 75.8634,7.3406 76.1254,7.9486 C76.3534,8.4796 76.6354,8.9866 76.8724,9.5156 C77.1044,10.0286 77.6684,10.4046 77.5384,11.0716 C77.7574,11.5366 77.9934,11.9946 78.1874,12.4706 C78.2824,12.7036 78.3024,12.9706 78.3484,13.2236 C78.4174,13.6016 78.4464,13.9896 78.5514,14.3586 C78.9294,15.6826 78.8364,17.0386 78.8764,18.3856 C78.8864,18.7006 78.7884,19.0186 78.7474,19.3396 C78.6734,19.9116 78.5564,25.2026 78.5464,25.7776 C78.5324,26.6316 78.3374,27.4426 78.0064,28.2086 C77.7704,28.7526 77.5984,29.2846 77.5814,29.8726 C77.5774,30.0006 77.5674,30.1436 77.5054,30.2476 C76.6484,31.6806 76.2224,33.3276 75.2374,34.6926 C75.0894,34.8976 74.9074,35.0866 74.7134,35.2506 C73.3864,36.3746 72.1274,37.5896 70.5104,38.3246 C70.3384,38.4026 70.1964,38.5516 70.0474,38.6756 C69.2614,39.3336 68.7644,39.2866 69.4804,40.7266 C69.6224,41.0106 69.6994,41.3266 69.8094,41.6286 C70.0554,42.2976 70.3634,42.9376 70.8274,43.4816 C71.7644,44.5836 72.3624,45.8526 72.8244,47.2026 C72.9264,47.5006 73.4034,47.8936 73.6194,48.1066 C74.6854,49.1556 75.4844,50.6096 76.4354,51.4896 C76.7174,51.7506 77.0094,52.0266 77.1954,52.3536 C77.6514,53.1526 77.7674,53.1686 78.6014,53.8686 C79.5894,54.6996 80.6114,55.4966 81.6664,56.2426 C82.5084,56.8406 83.3764,57.4336 84.3124,57.8546 C85.5514,58.4136 86.8764,58.7766 88.2634,58.7566 C88.9134,58.7456 89.5504,58.6196 90.1504,58.3456 C91.8104,57.5826 94.3214,54.9086 95.6454,53.6546 C96.5974,52.7536 97.3304,50.0286 97.7684,48.7846 C97.7954,48.7056 97.9524,48.6606 98.0584,48.6296 C98.0894,48.6186 98.1754,48.6986 98.1944,48.7546 C98.3014,49.0556 98.4404,49.3526 98.4844,49.6656 C98.6604,50.8886 98.2824,53.7656 98.3184,54.9836 C97.8284,56.3856 96.3754,59.4796 95.0204,60.3666 C94.3754,60.7886 93.7034,61.1976 93.2594,61.8606 C91.5614,63.0746 89.7574,64.0926 87.6744,64.4586 C86.7894,64.6126 85.8614,64.6206 84.9594,64.5716 C80.9684,64.3586 79.1114,64.6496 75.9004,62.3026 C73.8634,60.8116 69.3054,55.8706 69.0744,55.5616 C67.6064,53.6016 66.2954,50.5656 65.2014,48.5896 C63.9234,46.2766 62.6174,43.9776 61.5944,41.5386 C61.4264,41.1396 61.1684,40.9106 60.7644,40.8136 C60.5984,40.7736 60.3244,40.9266 60.3214,41.0726 C60.2924,42.6786 59.8934,49.2866 60.0844,50.9016 C59.9294,51.7946 59.8674,52.7006 60.0074,53.5886 C60.2714,55.2556 59.9654,58.6026 60.1454,60.2686 C60.1724,60.5166 60.0904,60.7746 60.0604,61.0296 C59.9944,61.6046 59.8774,62.1806 59.8754,62.7556 C59.8724,63.6186 59.6354,64.3806 59.2184,65.1396 C58.7334,66.0206 58.7044,66.4546 57.2914,66.2016 C57.0404,66.1566 56.7664,66.1576 56.5164,66.2056 C55.6284,66.3756 55.0224,65.9426 54.4964,65.3196 C53.9484,64.6716 53.5794,63.9456 53.3434,63.1166 C52.9864,61.8616 52.9324,58.9056 52.8754,57.6226 M62.1204,7.2036 L62.1204,7.2136 C61.4734,7.2466 60.8264,7.2686 60.1814,7.3176 C59.7324,7.3516 59.4934,7.5756 59.4074,8.0386 C59.2794,8.7296 59.0834,9.4266 59.2204,10.1336 C59.4184,11.1546 59.3254,12.1756 59.3024,13.2006 C59.2874,13.8986 59.2894,14.5966 59.2184,15.2916 C59.6334,16.2656 59.3344,17.3376 59.6464,18.3246 C59.7124,19.9256 59.7804,26.2416 59.8394,27.8426 C59.8444,27.9666 59.7824,28.0926 59.7554,28.2186 C59.6444,28.7476 59.7834,29.2366 60.0094,29.7116 C60.1214,29.9446 60.2454,30.1606 60.5224,30.2506 C60.8304,30.3486 61.1504,30.4356 61.4304,30.5906 C62.5034,31.1786 63.6334,31.6886 64.2664,32.8426 C64.4694,33.2116 64.9334,33.1956 65.2694,32.8936 C66.0944,32.1546 66.7724,31.2816 67.3444,30.3546 C67.9864,29.3136 68.7064,28.1726 68.7594,26.9196 C68.8394,24.9906 69.0764,18.3586 69.2614,16.4406 C69.3734,15.2786 69.2864,14.1306 69.1624,12.9766 C69.0144,11.6016 68.2624,10.3646 67.5504,9.1996 C66.7134,7.8296 65.5134,7.0736 63.8664,7.1146 C63.2834,7.1306 62.7024,7.1746 62.1204,7.2036" id="Fill-3"></path>
                <g id="Group-7" transform="translate(0.000000, 0.999400)">
                    <path d="M1.0053,64.3908 C1.0593,63.2058 1.1613,63.4038 1.1793,61.9228 C1.1903,61.0898 1.0643,60.2548 0.9973,59.4198 C0.9653,59.0208 1.0213,58.6668 1.3683,58.3858 C1.5023,58.2788 1.6233,58.0628 1.6243,57.8958 C1.6313,55.8368 1.9283,54.7868 1.6923,52.7298 C1.6643,52.4848 1.5823,52.8908 1.4503,52.6858 C1.0323,52.0368 0.5663,51.4148 0.1433,50.7708 C0.0083,50.5648 -0.0607,49.6718 0.0693,49.3868 C0.5213,48.3938 0.9073,48.0368 1.3663,47.0448 C1.5903,46.5628 1.7013,46.0798 1.6923,45.5548 C1.6823,44.9768 1.7323,44.3938 1.6893,43.8178 C1.5273,41.6868 1.7563,39.5718 1.8883,37.4518 C1.9403,36.6168 1.9763,35.7798 2.0143,34.9438 C2.0383,34.4198 2.0203,33.9188 1.5753,33.5238 C1.4533,33.4128 1.4073,28.1528 1.3983,27.9698 C1.3823,27.6518 1.3643,27.3138 1.4473,27.0098 C1.7593,25.8738 1.6943,24.7138 1.7503,23.5598 C1.8493,21.5498 2.3343,19.6088 2.9893,17.7198 C3.2803,16.8808 3.8293,16.1278 4.2813,15.3468 C4.5393,14.9028 4.8363,14.4798 5.1173,14.0458 C5.6493,13.2258 6.0453,12.3538 6.1793,11.3728 C6.2133,11.1198 6.3003,10.8728 6.3673,10.6248 C6.4083,10.4718 6.7063,10.3408 6.8453,10.4148 C7.0723,10.5368 7.3023,10.6558 7.5223,10.7878 C8.5053,11.3808 8.9823,12.2198 8.7793,13.3798 C8.6123,14.3288 8.8013,15.3198 8.4543,16.2478 C8.6313,17.3328 8.5523,18.4128 8.4333,19.4978 C8.4073,19.7368 8.5033,20.0208 8.6283,20.2328 C8.8693,20.6398 8.9433,21.0628 8.9253,21.5228 C8.8913,22.3618 8.9483,23.1928 9.1033,24.0208 C9.1853,24.4608 9.2443,24.9128 9.2493,25.3628 C9.2623,26.4608 9.4023,27.5358 9.7933,28.5708 C9.8153,28.6288 9.8403,28.6928 9.8473,28.7538 C10.0963,30.9898 10.3653,33.2308 10.1563,35.4768 C10.0663,36.4498 10.1493,37.3848 10.2753,38.3338 C10.2813,38.3798 10.3483,38.4398 10.3983,38.4538 C10.4563,38.4698 10.5323,38.4578 10.5883,38.4338 C10.6433,38.4098 10.6963,38.3608 10.7273,38.3088 C11.8923,36.3728 13.2453,34.5638 14.5363,32.7118 C14.5733,32.6608 14.6153,32.6098 14.6443,32.5518 C15.6683,30.5078 17.3193,28.9248 18.6943,27.1398 C18.8113,26.9878 18.9653,26.8618 19.0813,26.7058 C19.6993,25.8828 20.2383,24.9878 20.9453,24.2478 C21.6603,23.5008 22.3513,22.7388 23.0133,21.9488 C23.2613,21.6528 23.4983,21.3418 23.7023,21.0158 C25.0663,18.8278 26.2283,17.0588 27.5583,14.8478 C28.0273,14.0688 28.6273,13.3968 29.1673,12.6738 C29.9013,11.6938 30.6603,10.7298 31.3783,9.7378 C31.7173,9.2698 32.0553,8.7818 32.2723,8.2518 C32.6703,7.2848 33.2403,6.4488 33.9123,5.6518 C34.4093,5.0618 34.8213,4.3998 35.2473,3.7528 C35.9593,2.6778 36.6513,1.5898 37.3583,0.5118 C37.3843,0.4728 37.4813,0.4638 37.5423,0.4688 C37.5883,0.4718 37.6553,0.5118 37.6693,0.5508 C37.8173,0.9658 37.7633,1.4318 38.0313,1.8278 C38.1213,1.9598 38.1063,2.2048 38.0603,2.3788 C37.9283,2.8728 37.8243,3.3818 37.4993,3.8068 C36.8493,4.6578 36.5403,5.6078 36.6483,6.6848 C36.6813,7.0138 36.5593,7.3098 36.3243,7.5608 C36.1503,7.7448 35.9103,7.9338 35.8593,8.1558 C35.7243,8.7408 35.3473,9.1768 35.0893,9.6848 C34.7713,10.3068 34.3253,10.8758 34.1643,11.5848 C34.0513,12.0838 33.9003,12.5908 33.6613,13.0378 C33.4553,13.4238 33.0743,13.7138 32.8183,14.0788 C32.5233,14.4998 32.2393,14.9408 32.0273,15.4068 C31.8113,15.8778 31.5573,16.3108 31.2423,16.7268 C30.9763,17.0778 30.9723,17.0808 30.8433,17.5028 C30.6313,18.1988 30.2393,18.7788 29.8513,19.3718 C28.8303,20.9348 27.8243,22.5048 26.8123,24.0738 C26.2013,25.7308 25.0253,27.0458 24.0783,28.4978 C23.6173,29.2048 23.1843,29.9128 22.9293,30.7208 C22.7933,31.1538 22.5433,31.5208 22.2853,31.8978 C21.6343,32.8518 21.1403,33.9108 20.3713,34.7878 C19.8513,36.1968 18.9533,37.3798 18.1083,38.5958 C17.9983,38.7538 17.9093,38.9288 17.8273,39.1048 C17.1373,40.5668 16.3333,41.9568 15.3183,43.2238 C15.0923,43.5058 15.1133,43.8138 15.3373,44.1088 C15.6103,44.4668 15.9063,44.8108 16.1723,45.1738 C16.4753,45.5908 16.8033,45.9998 17.0363,46.4538 C17.4213,47.2038 17.8553,47.9118 18.3693,48.5808 C18.5993,48.8818 18.7753,49.2448 18.8963,49.6048 C19.1253,50.2878 19.4623,50.9168 19.9173,51.4578 C20.6743,52.3588 21.2103,53.3868 21.7403,54.4118 C22.8363,56.5278 23.3393,57.0828 24.6663,59.0678 C25.4183,60.1918 26.1663,61.3098 27.1093,62.2898 C27.5093,62.7058 27.8433,63.1858 28.2103,63.6328 C29.0253,64.6268 28.9603,64.8198 30.0063,65.5968 C30.6693,66.5138 31.6423,67.0568 32.5733,67.6328 C33.9723,68.4968 35.5143,68.9578 37.1693,69.0058 C38.6373,69.0488 40.0003,68.7398 41.1733,67.7988 C41.3723,67.6398 41.6013,67.5108 41.8343,67.4078 C41.9073,67.3738 42.1253,67.4638 42.1293,67.5088 C42.1563,67.8888 42.2623,68.3168 42.1313,68.6448 C41.8223,69.4138 41.5353,70.2128 40.9903,70.8668 C40.7873,71.1098 40.5583,71.3958 40.2783,71.5008 C38.7713,72.0778 37.3363,72.8508 35.7233,73.1448 C33.5113,73.5478 31.3243,73.4018 29.1763,72.7938 C26.3923,72.0068 23.9143,70.6518 21.8083,68.6598 C21.5743,68.4388 21.3643,68.1918 21.1603,67.9428 C19.8093,66.2938 19.3293,65.4608 17.9533,63.8348 C15.9653,61.4878 15.3233,60.2758 14.1703,57.4678 C13.7313,56.3998 13.4433,55.2688 13.0273,54.1888 C12.4723,52.7458 11.8633,51.3258 11.2703,49.8978 C11.1723,49.6618 11.0543,49.4278 10.9103,49.2178 C10.8503,49.1298 10.7023,49.0918 10.5863,49.0558 C10.4473,49.0118 10.3303,49.0838 10.3113,49.2438 C10.2333,49.8788 10.1453,50.5178 10.1053,51.1578 C10.0113,52.6308 10.0553,54.1158 9.8623,55.5858 C9.8213,55.9008 9.8183,57.9108 9.8813,58.2188 C10.0373,58.9898 9.9663,59.7578 9.9333,60.5288 C9.9003,61.2998 9.8513,62.0718 9.8083,62.8418 C9.7943,63.0988 9.8323,63.3728 9.7543,63.6118 C9.3243,64.9288 9.5113,69.6398 9.4493,70.9828 C9.4203,71.6258 9.4073,72.2528 9.2153,72.8828 C9.0193,73.5288 9.4933,74.1288 9.4543,74.7788 C9.4313,75.1618 9.3923,75.5468 9.3543,75.9318 C9.2963,76.5078 9.2183,77.0808 9.1773,77.6598 C9.1353,78.2378 9.1063,78.8068 8.9263,79.3708 C8.7903,79.7948 8.7193,80.2558 8.7133,80.7028 C8.6843,82.9808 8.0333,85.1368 7.4233,87.2968 C7.2513,87.9078 6.9063,88.4728 6.5973,89.0358 C6.3013,89.5758 5.8073,89.8568 5.1943,89.9668 C4.6403,90.0698 4.3573,89.9468 4.1203,89.4118 C3.9643,89.0588 3.8443,88.6868 3.6613,88.3468 C3.0093,87.1438 2.6853,85.8548 2.4023,84.5158 C2.0543,82.8728 1.8433,81.2288 1.6433,79.5678 C1.4973,78.3548 1.3393,77.1448 1.2663,75.9228 C1.2463,75.6028 1.2433,75.2768 1.1793,74.9618 C0.9033,73.6248 0.9903,72.2778 1.0033,70.9288 C1.0123,69.9638 1.0053,65.6508 1.0053,64.3908" id="Fill-5"></path>
                </g>
                <path d="M86.4433,50.9781 C84.9883,51.2301 83.5963,50.5831 82.3633,49.4461 C81.9883,49.0981 81.6283,48.6891 81.3793,48.2321 C80.6743,46.9341 80.0063,45.6031 79.6563,44.1351 C79.4343,43.2061 79.3053,42.2481 79.4103,41.2791 C79.5063,40.3871 79.6053,39.5021 79.5773,38.5961 C79.5583,38.0051 79.6323,37.3831 79.7963,36.8231 C80.0843,35.8361 80.1683,34.8321 80.2343,33.8131 C80.2573,33.4541 80.2373,33.0491 80.3833,32.7521 C80.6753,32.1611 80.6143,31.4751 80.8763,30.8841 C81.1153,30.3471 81.3093,29.7861 81.5513,29.2491 C81.6173,29.1021 81.7663,28.9581 81.9073,28.9021 C82.3233,28.7331 82.7113,28.5361 83.0293,28.1801 C84.0623,27.0291 85.3913,26.4771 86.7793,26.0611 C87.2563,25.9181 87.7383,25.7981 88.2223,25.6881 C88.6183,25.5971 88.9913,25.7101 89.3273,25.9491 C89.5113,26.0801 89.6843,26.2331 89.8483,26.3941 C90.1423,26.6821 90.4703,26.8691 90.8573,26.9761 C91.6973,27.2101 92.3523,27.7311 92.7663,28.5891 C92.8403,28.7451 92.9523,28.9031 93.0853,28.9921 C93.2123,29.0771 93.4213,29.1511 93.5353,29.0931 C93.8303,28.9461 94.2863,29.1661 94.5283,28.9321 C94.9613,28.9321 95.1393,28.9571 95.7043,28.3071 C96.6123,27.2631 96.4043,28.0891 97.2653,26.7911 C98.1293,26.0561 98.6353,25.5411 99.4923,24.7951 C99.7053,24.6111 99.9123,24.7181 99.9403,25.0211 C99.9853,25.4981 100.0623,25.9671 99.9083,26.4471 C99.8683,27.4271 99.8793,27.7911 99.8683,28.1441 C99.5843,29.4991 99.6513,28.7901 99.2153,30.0561 C99.0143,31.0111 98.7853,31.2261 98.3623,31.8291 C97.5403,32.8801 97.3433,33.4491 96.2123,34.1161 C95.4913,34.5411 95.5333,34.3311 94.8393,34.8071 C94.5413,35.0131 94.3723,35.3311 94.3803,35.7101 C94.4083,37.1071 94.1523,38.4541 93.8593,39.7941 C93.7943,40.0921 93.7833,40.3721 93.8663,40.6731 C93.9283,40.9001 93.8893,41.1551 93.9273,41.3901 C94.1293,42.6221 93.8903,43.7731 93.4683,44.9001 C93.2613,45.4541 93.0573,46.0131 92.9123,46.5891 C92.6173,47.7601 91.9273,48.5721 91.0213,49.1971 C90.5593,49.5151 90.0653,49.7831 89.6113,50.1141 C88.8583,50.6631 88.0433,50.9571 87.1323,50.9451 C86.9673,50.9431 86.8023,50.9591 86.4433,50.9781 M84.9993,38.4661 C84.9743,38.4671 84.9493,38.4681 84.9243,38.4701 C84.9673,39.2981 84.9733,40.1311 85.0663,40.9551 C85.1593,41.7771 85.3823,42.5821 85.4713,43.4051 C85.5973,44.5591 86.1223,45.5521 86.5133,46.5961 C86.6623,46.9951 87.0053,47.3261 87.3063,47.6321 C87.9033,48.2441 88.8063,48.1771 89.3503,47.5401 C89.9283,46.8631 90.3213,46.0791 90.4703,45.1661 C90.6653,43.9781 90.9063,42.8051 91.2503,41.6601 C91.6193,40.4301 91.8063,39.1861 91.6333,37.8741 C91.5563,37.2851 91.6393,36.6691 91.6423,36.0671 C91.6443,35.6901 91.6403,35.3131 91.6283,34.9351 C91.6203,34.6801 91.3113,34.3731 91.0573,34.3871 C89.3913,34.4921 87.7433,34.3171 86.0973,34.0131 C85.2593,33.8601 84.9413,34.1671 84.8973,35.0811 C84.8763,35.5321 84.8793,35.9861 84.8953,36.4381 C84.9193,37.1151 84.9633,37.7901 84.9993,38.4661 M86.8553,29.1961 C86.4003,29.1921 86.1763,29.4951 86.2503,29.9021 C86.4423,30.9561 87.2393,31.4541 88.2403,31.1271 C88.3113,31.1051 88.4083,30.9061 88.3823,30.8531 C88.0923,30.2691 87.7063,29.7621 87.2343,29.3431 C87.1173,29.2411 86.9343,29.2241 86.8553,29.1961" id="Fill-8"></path>
                <path d="M31.0488,55.7369 C30.8108,54.4449 30.9498,52.9699 30.9608,51.4959 C30.9658,50.7259 30.9708,49.9569 30.9528,49.1859 C30.9238,47.8949 30.9898,46.6209 31.3628,45.3909 C31.5858,44.6619 31.7488,43.9239 31.7258,43.1369 C31.7018,42.2769 31.9648,41.5009 32.3678,40.7819 C32.7328,40.1309 33.0838,39.4659 33.4958,38.8489 C34.2578,37.7139 35.1168,36.6929 36.3818,36.1669 C36.7548,36.0089 37.1068,35.7329 37.3988,35.4319 C38.1628,34.6419 39.1148,34.3709 40.1208,34.2229 C40.3548,34.1889 40.5938,34.2009 40.8288,34.1749 C41.2958,34.1269 41.7698,33.9759 42.2258,34.0339 C42.8358,34.1089 43.2328,34.6949 43.7378,35.0359 C44.4568,35.5179 45.0498,36.1559 45.5368,36.9079 C45.6748,37.1199 45.7818,37.3989 45.9708,37.5189 C46.8238,38.0609 46.9428,38.8979 46.9128,39.8389 C46.9028,40.1509 46.9988,40.4709 47.0518,40.7879 C47.0768,40.9359 47.3378,41.0869 47.4738,41.0489 C48.2268,40.8369 48.8528,40.3719 49.4788,39.9059 C49.5878,39.8249 49.8738,39.9239 49.9398,40.0589 C49.9938,40.1739 50.0758,40.2809 50.0998,40.3999 C50.1498,40.6499 50.1498,40.9149 50.2078,41.1629 C50.4928,42.3839 49.9948,43.2629 49.2128,44.0209 C48.7328,44.4859 48.2328,44.9269 47.7708,45.4129 C47.4688,45.7279 47.2918,46.1329 47.3768,46.6249 C47.5778,47.7819 47.5228,48.9249 47.3038,50.0609 C47.1698,50.7569 47.1598,51.4529 47.3168,52.1599 C47.4888,52.9269 47.4058,53.6859 47.2168,54.4389 C47.0468,55.1159 46.8938,55.7999 46.7898,56.4929 C46.6478,57.4409 46.4078,58.3679 46.2638,59.3069 C46.0878,60.4679 45.5078,61.2999 44.7568,62.0229 C42.7738,63.9319 40.3678,64.7339 37.7478,64.5779 C35.2678,64.4279 33.3578,63.0789 32.2308,60.5699 C31.7128,59.4169 31.2368,57.4949 31.0488,55.7369 M37.1938,54.6069 C37.2158,55.8609 37.6178,57.0849 38.0438,58.2929 C38.4428,59.4249 39.1398,60.2869 40.1988,60.7629 C40.5468,60.9209 40.8898,60.9219 41.2388,60.8069 C41.9548,60.5729 42.4748,60.0669 42.7998,59.3589 C43.6128,57.5879 44.3368,55.7779 44.4808,53.7539 C44.5128,53.3049 44.5298,52.8469 44.6378,52.4219 C44.9518,51.1769 44.9488,49.8839 45.1148,48.6199 C45.1718,48.1869 45.0868,47.7269 45.0478,47.2829 C45.0268,47.0489 44.7418,46.8069 44.5388,46.8369 C44.1308,46.8929 43.7198,46.9419 43.3188,47.0359 C41.5398,47.4449 39.8018,47.3449 38.1148,46.4699 C37.7928,46.3029 37.4598,46.1619 37.1298,46.0129 C36.9008,45.9119 36.6788,46.0969 36.6658,46.3949 C36.6578,46.5889 36.6178,46.7849 36.6438,46.9699 C36.8088,48.1289 36.7758,49.2629 36.5548,50.4059 C36.4198,51.0969 36.4818,51.8409 36.7468,52.4909 C37.0228,53.1649 37.0658,53.8589 37.1938,54.6069 M41.3918,36.2699 C40.7128,36.3569 40.1498,36.7349 39.9498,37.2869 C39.7588,37.8139 39.6118,38.3649 39.4778,38.9159 C39.4358,39.0869 39.4648,39.2999 39.5178,39.4749 C39.9748,41.0029 40.0928,41.1279 41.5098,41.6159 C42.1848,41.8469 42.8638,42.0679 43.5438,42.2869 C43.7118,42.3409 43.8898,42.3659 44.0638,42.3909 C44.5378,42.4659 44.9838,41.9689 44.9088,41.4389 C44.8728,41.1889 44.8238,40.9339 44.7348,40.7029 C44.5068,40.1079 44.2558,39.5249 44.0088,38.9399 C43.9348,38.7649 43.8748,38.5659 43.7548,38.4349 C43.1268,37.7499 42.4898,37.0729 41.8348,36.4169 C41.7218,36.3009 41.5078,36.3049 41.3918,36.2699" id="Fill-10"></path>
                <path d="M96.29,41.9586 C96.29,42.9766 97.121,43.8016 98.145,43.8016 C99.169,43.8016 100,42.9766 100,41.9586 C100,40.9406 99.169,40.1166 98.145,40.1166 C97.121,40.1166 96.29,40.9406 96.29,41.9586 L96.29,41.9586 Z M96.531,41.9586 C96.531,41.0736 97.254,40.3546 98.145,40.3546 C99.036,40.3546 99.759,41.0736 99.759,41.9586 C99.759,42.8446 99.036,43.5626 98.145,43.5626 C97.254,43.5626 96.531,42.8446 96.531,41.9586 L96.531,41.9586 Z M97.31,42.9726 L97.706,42.9726 L97.706,42.1006 L98.184,42.1006 C98.52,42.1006 98.58,42.2626 98.601,42.5306 C98.632,42.9026 98.64,42.9496 98.696,42.9726 L99.182,42.9726 L99.182,42.8876 C99.053,42.8736 99.023,42.7876 98.997,42.4496 C98.975,42.1546 98.902,42.0196 98.683,41.9536 L98.683,41.9346 C98.894,41.8916 99.053,41.6886 99.053,41.4636 C99.053,41.0686 98.769,40.8596 98.356,40.8596 L97.31,40.8596 L97.31,42.9726 Z M97.706,41.2016 L98.304,41.2016 C98.528,41.2016 98.657,41.3256 98.657,41.4926 C98.657,41.6596 98.528,41.7836 98.304,41.7836 L97.706,41.7836 L97.706,41.2016 Z" id="Fill-12"></path>
            </g>
        </g>
    </g>
</svg>